<svg width="417" height="791" viewBox="0 0 417 791" fill="none" xmlns="http://www.w3.org/2000/svg">
<g opacity="0.5">
<rect x="219" y="514.183" width="8" height="69" rx="4" transform="rotate(-23.4441 219 514.183)" fill="#B62D8F" fill-opacity="0.15"/>
<rect x="219" y="727.183" width="8" height="69" rx="4" transform="rotate(-23.4441 219 727.183)" fill="#B62D8F" fill-opacity="0.15"/>
<rect x="374" y="502.183" width="8" height="69" rx="4" transform="rotate(-23.4441 374 502.183)" fill="#B62D8F" fill-opacity="0.15"/>
<rect x="374" y="715.183" width="8" height="69" rx="4" transform="rotate(-23.4441 374 715.183)" fill="#B62D8F" fill-opacity="0.15"/>
<rect x="260" y="487.183" width="8" height="69" rx="4" transform="rotate(-23.4441 260 487.183)" fill="#B62D8F" fill-opacity="0.15"/>
<rect x="260" y="700.183" width="8" height="69" rx="4" transform="rotate(-23.4441 260 700.183)" fill="#B62D8F" fill-opacity="0.15"/>
<rect x="148" y="356.183" width="8" height="69" rx="4" transform="rotate(-23.4441 148 356.183)" fill="#B62D8F" fill-opacity="0.15"/>
<rect x="148" y="569.183" width="8" height="69" rx="4" transform="rotate(-23.4441 148 569.183)" fill="#B62D8F" fill-opacity="0.15"/>
<rect x="303" y="344.183" width="8" height="69" rx="4" transform="rotate(-23.4441 303 344.183)" fill="#B62D8F" fill-opacity="0.15"/>
<rect x="303" y="557.183" width="8" height="69" rx="4" transform="rotate(-23.4441 303 557.183)" fill="#B62D8F" fill-opacity="0.15"/>
<rect x="189" y="329.183" width="8" height="69" rx="4" transform="rotate(-23.4441 189 329.183)" fill="#B62D8F" fill-opacity="0.15"/>
<rect x="189" y="542.183" width="8" height="69" rx="4" transform="rotate(-23.4441 189 542.183)" fill="#B62D8F" fill-opacity="0.15"/>
<rect x="344" y="317.183" width="8" height="69" rx="4" transform="rotate(-23.4441 344 317.183)" fill="#B62D8F" fill-opacity="0.15"/>
<rect x="344" y="530.183" width="8" height="69" rx="4" transform="rotate(-23.4441 344 530.183)" fill="#B62D8F" fill-opacity="0.15"/>
<rect x="154" y="423.183" width="8" height="69" rx="4" transform="rotate(-23.4441 154 423.183)" fill="#B62D8F" fill-opacity="0.15"/>
<rect x="154" y="636.183" width="8" height="69" rx="4" transform="rotate(-23.4441 154 636.183)" fill="#B62D8F" fill-opacity="0.15"/>
<rect x="309" y="411.183" width="8" height="69" rx="4" transform="rotate(-23.4441 309 411.183)" fill="#B62D8F" fill-opacity="0.15"/>
<rect x="309" y="624.183" width="8" height="69" rx="4" transform="rotate(-23.4441 309 624.183)" fill="#B62D8F" fill-opacity="0.15"/>
<rect x="195" y="396.183" width="8" height="69" rx="4" transform="rotate(-23.4441 195 396.183)" fill="#B62D8F" fill-opacity="0.15"/>
<rect x="195" y="609.183" width="8" height="69" rx="4" transform="rotate(-23.4441 195 609.183)" fill="#B62D8F" fill-opacity="0.15"/>
<rect x="350" y="384.183" width="8" height="69" rx="4" transform="rotate(-23.4441 350 384.183)" fill="#B62D8F" fill-opacity="0.15"/>
<rect x="350" y="597.183" width="8" height="69" rx="4" transform="rotate(-23.4441 350 597.183)" fill="#B62D8F" fill-opacity="0.15"/>
<rect x="181" y="429.183" width="8" height="69" rx="4" transform="rotate(-23.4441 181 429.183)" fill="#5478F2" fill-opacity="0.25"/>
<rect x="181" y="642.183" width="8" height="69" rx="4" transform="rotate(-23.4441 181 642.183)" fill="#5478F2" fill-opacity="0.25"/>
<rect x="336" y="417.183" width="8" height="69" rx="4" transform="rotate(-23.4441 336 417.183)" fill="#5478F2" fill-opacity="0.25"/>
<rect x="336" y="630.183" width="8" height="69" rx="4" transform="rotate(-23.4441 336 630.183)" fill="#5478F2" fill-opacity="0.25"/>
<rect x="222" y="402.183" width="8" height="69" rx="4" transform="rotate(-23.4441 222 402.183)" fill="#5478F2" fill-opacity="0.25"/>
<rect x="222" y="615.183" width="8" height="69" rx="4" transform="rotate(-23.4441 222 615.183)" fill="#5478F2" fill-opacity="0.25"/>
<rect x="377" y="390.183" width="8" height="69" rx="4" transform="rotate(-23.4441 377 390.183)" fill="#5478F2" fill-opacity="0.25"/>
<rect x="377" y="603.183" width="8" height="69" rx="4" transform="rotate(-23.4441 377 603.183)" fill="#5478F2" fill-opacity="0.25"/>
<rect x="187" y="496.183" width="8" height="69" rx="4" transform="rotate(-23.4441 187 496.183)" fill="#5478F2" fill-opacity="0.25"/>
<rect x="187" y="709.183" width="8" height="69" rx="4" transform="rotate(-23.4441 187 709.183)" fill="#5478F2" fill-opacity="0.25"/>
<rect x="342" y="484.183" width="8" height="69" rx="4" transform="rotate(-23.4441 342 484.183)" fill="#5478F2" fill-opacity="0.25"/>
<rect x="342" y="697.183" width="8" height="69" rx="4" transform="rotate(-23.4441 342 697.183)" fill="#5478F2" fill-opacity="0.25"/>
<rect x="228" y="469.183" width="8" height="69" rx="4" transform="rotate(-23.4441 228 469.183)" fill="#5478F2" fill-opacity="0.25"/>
<rect x="228" y="682.183" width="8" height="69" rx="4" transform="rotate(-23.4441 228 682.183)" fill="#5478F2" fill-opacity="0.25"/>
<rect x="383" y="457.183" width="8" height="69" rx="4" transform="rotate(-23.4441 383 457.183)" fill="#5478F2" fill-opacity="0.25"/>
<rect x="383" y="670.183" width="8" height="69" rx="4" transform="rotate(-23.4441 383 670.183)" fill="#5478F2" fill-opacity="0.25"/>
<rect x="88" y="489.183" width="8" height="69" rx="4" transform="rotate(-23.4441 88 489.183)" fill="#B62D8F" fill-opacity="0.15"/>
<rect x="88" y="702.183" width="8" height="69" rx="4" transform="rotate(-23.4441 88 702.183)" fill="#B62D8F" fill-opacity="0.15"/>
<rect x="129" y="462.183" width="8" height="69" rx="4" transform="rotate(-23.4441 129 462.183)" fill="#B62D8F" fill-opacity="0.15"/>
<rect x="129" y="675.183" width="8" height="69" rx="4" transform="rotate(-23.4441 129 675.183)" fill="#B62D8F" fill-opacity="0.15"/>
<rect x="284" y="450.183" width="8" height="69" rx="4" transform="rotate(-23.4441 284 450.183)" fill="#B62D8F" fill-opacity="0.15"/>
<rect x="284" y="663.183" width="8" height="69" rx="4" transform="rotate(-23.4441 284 663.183)" fill="#B62D8F" fill-opacity="0.15"/>
<rect x="104" y="261.183" width="8" height="69" rx="4" transform="rotate(-23.4441 104 261.183)" fill="#5478F2" fill-opacity="0.25"/>
<rect x="121" y="562.183" width="8" height="69" rx="4" transform="rotate(-23.4441 121 562.183)" fill="#5478F2" fill-opacity="0.25"/>
<rect x="17" y="331.183" width="8" height="69" rx="4" transform="rotate(-23.4441 17 331.183)" fill="#B62D8F" fill-opacity="0.15"/>
<rect x="17" y="544.183" width="8" height="69" rx="4" transform="rotate(-23.4441 17 544.183)" fill="#B62D8F" fill-opacity="0.15"/>
<rect x="58" y="304.183" width="8" height="69" rx="4" transform="rotate(-23.4441 58 304.183)" fill="#B62D8F" fill-opacity="0.15"/>
<rect x="58" y="517.183" width="8" height="69" rx="4" transform="rotate(-23.4441 58 517.183)" fill="#B62D8F" fill-opacity="0.15"/>
<rect x="23" y="398.183" width="8" height="69" rx="4" transform="rotate(-23.4441 23 398.183)" fill="#B62D8F" fill-opacity="0.15"/>
<rect x="23" y="611.183" width="8" height="69" rx="4" transform="rotate(-23.4441 23 611.183)" fill="#B62D8F" fill-opacity="0.15"/>
<rect x="64" y="371.183" width="8" height="69" rx="4" transform="rotate(-23.4441 64 371.183)" fill="#B62D8F" fill-opacity="0.15"/>
<rect x="64" y="584.183" width="8" height="69" rx="4" transform="rotate(-23.4441 64 584.183)" fill="#B62D8F" fill-opacity="0.15"/>
<rect x="50" y="404.183" width="8" height="69" rx="4" transform="rotate(-23.4441 50 404.183)" fill="#5478F2" fill-opacity="0.25"/>
<rect x="50" y="617.183" width="8" height="69" rx="4" transform="rotate(-23.4441 50 617.183)" fill="#5478F2" fill-opacity="0.25"/>
<rect x="91" y="377.183" width="8" height="69" rx="4" transform="rotate(-23.4441 91 377.183)" fill="#5478F2" fill-opacity="0.25"/>
<rect x="91" y="590.183" width="8" height="69" rx="4" transform="rotate(-23.4441 91 590.183)" fill="#5478F2" fill-opacity="0.25"/>
<rect x="56" y="471.183" width="8" height="69" rx="4" transform="rotate(-23.4441 56 471.183)" fill="#5478F2" fill-opacity="0.25"/>
<rect x="56" y="684.183" width="8" height="69" rx="4" transform="rotate(-23.4441 56 684.183)" fill="#5478F2" fill-opacity="0.25"/>
<rect x="97" y="444.183" width="8" height="69" rx="4" transform="rotate(-23.4441 97 444.183)" fill="#5478F2" fill-opacity="0.25"/>
<rect x="97" y="657.183" width="8" height="69" rx="4" transform="rotate(-23.4441 97 657.183)" fill="#5478F2" fill-opacity="0.25"/>
<rect x="202" y="213.183" width="8" height="69" rx="4" transform="rotate(-23.4441 202 213.183)" fill="#B62D8F" fill-opacity="0.15"/>
<rect x="357" y="201.183" width="8" height="69" rx="4" transform="rotate(-23.4441 357 201.183)" fill="#B62D8F" fill-opacity="0.15"/>
<rect x="243" y="186.183" width="8" height="69" rx="4" transform="rotate(-23.4441 243 186.183)" fill="#B62D8F" fill-opacity="0.15"/>
<rect x="131" y="55.1829" width="8" height="69" rx="4" transform="rotate(-23.4441 131 55.1829)" fill="#B62D8F" fill-opacity="0.15"/>
<rect x="286" y="43.1829" width="8" height="69" rx="4" transform="rotate(-23.4441 286 43.1829)" fill="#B62D8F" fill-opacity="0.15"/>
<rect x="172" y="28.1829" width="8" height="69" rx="4" transform="rotate(-23.4441 172 28.1829)" fill="#B62D8F" fill-opacity="0.15"/>
<rect x="327" y="16.1829" width="8" height="69" rx="4" transform="rotate(-23.4441 327 16.1829)" fill="#B62D8F" fill-opacity="0.15"/>
<rect x="137" y="122.183" width="8" height="69" rx="4" transform="rotate(-23.4441 137 122.183)" fill="#B62D8F" fill-opacity="0.15"/>
<rect x="292" y="110.183" width="8" height="69" rx="4" transform="rotate(-23.4441 292 110.183)" fill="#B62D8F" fill-opacity="0.15"/>
<rect x="178" y="95.1829" width="8" height="69" rx="4" transform="rotate(-23.4441 178 95.1829)" fill="#B62D8F" fill-opacity="0.15"/>
<rect x="333" y="83.1829" width="8" height="69" rx="4" transform="rotate(-23.4441 333 83.1829)" fill="#B62D8F" fill-opacity="0.15"/>
<rect x="164" y="128.183" width="8" height="69" rx="4" transform="rotate(-23.4441 164 128.183)" fill="#5478F2" fill-opacity="0.25"/>
<rect x="319" y="116.183" width="8" height="69" rx="4" transform="rotate(-23.4441 319 116.183)" fill="#5478F2" fill-opacity="0.25"/>
<rect x="205" y="101.183" width="8" height="69" rx="4" transform="rotate(-23.4441 205 101.183)" fill="#5478F2" fill-opacity="0.25"/>
<rect x="360" y="89.1829" width="8" height="69" rx="4" transform="rotate(-23.4441 360 89.1829)" fill="#5478F2" fill-opacity="0.25"/>
<rect x="170" y="195.183" width="8" height="69" rx="4" transform="rotate(-23.4441 170 195.183)" fill="#5478F2" fill-opacity="0.25"/>
<rect x="325" y="183.183" width="8" height="69" rx="4" transform="rotate(-23.4441 325 183.183)" fill="#5478F2" fill-opacity="0.25"/>
<rect x="211" y="168.183" width="8" height="69" rx="4" transform="rotate(-23.4441 211 168.183)" fill="#5478F2" fill-opacity="0.25"/>
<rect x="366" y="156.183" width="8" height="69" rx="4" transform="rotate(-23.4441 366 156.183)" fill="#5478F2" fill-opacity="0.25"/>
<rect x="71" y="188.183" width="8" height="69" rx="4" transform="rotate(-23.4441 71 188.183)" fill="#B62D8F" fill-opacity="0.15"/>
<rect x="112" y="161.183" width="8" height="69" rx="4" transform="rotate(-23.4441 112 161.183)" fill="#B62D8F" fill-opacity="0.15"/>
<rect x="267" y="149.183" width="8" height="69" rx="4" transform="rotate(-23.4441 267 149.183)" fill="#B62D8F" fill-opacity="0.15"/>
<rect y="30.1829" width="8" height="69" rx="4" transform="rotate(-23.4441 0 30.1829)" fill="#B62D8F" fill-opacity="0.15"/>
<rect x="41" y="3.18286" width="8" height="69" rx="4" transform="rotate(-23.4441 41 3.18286)" fill="#B62D8F" fill-opacity="0.15"/>
<rect x="6" y="97.1829" width="8" height="69" rx="4" transform="rotate(-23.4441 6 97.1829)" fill="#B62D8F" fill-opacity="0.15"/>
<rect x="47" y="70.1829" width="8" height="69" rx="4" transform="rotate(-23.4441 47 70.1829)" fill="#B62D8F" fill-opacity="0.15"/>
<rect x="33" y="103.183" width="8" height="69" rx="4" transform="rotate(-23.4441 33 103.183)" fill="#5478F2" fill-opacity="0.25"/>
<rect x="74" y="76.1829" width="8" height="69" rx="4" transform="rotate(-23.4441 74 76.1829)" fill="#5478F2" fill-opacity="0.25"/>
<rect x="39" y="170.183" width="8" height="69" rx="4" transform="rotate(-23.4441 39 170.183)" fill="#5478F2" fill-opacity="0.25"/>
<rect x="80" y="143.183" width="8" height="69" rx="4" transform="rotate(-23.4441 80 143.183)" fill="#5478F2" fill-opacity="0.25"/>
</g>
</svg>
