<svg width="494" height="492" viewBox="0 0 494 492" fill="none" xmlns="http://www.w3.org/2000/svg">
<circle cx="144" cy="82" r="45" fill="url(#paint0_linear_339_560)"/>
<circle cx="285.5" cy="198.5" r="125.5" fill="url(#paint1_linear_339_560)"/>
<circle cx="72" cy="252" r="72" fill="url(#paint2_linear_339_560)"/>
<circle cx="416" cy="60" r="60" fill="url(#paint3_linear_339_560)"/>
<circle cx="220.5" cy="408.5" r="83.5" fill="url(#paint4_linear_339_560)"/>
<circle cx="434" cy="366" r="60" fill="url(#paint5_linear_339_560)"/>
<path d="M232.048 230.704V237.232H239.728V240.208H232.048V247.024H240.688V250H228.4V227.728H240.688V230.704H232.048ZM248.829 226.32V250H245.181V226.32H248.829ZM269.779 240.752C269.779 241.413 269.736 242.011 269.651 242.544H256.179C256.285 243.952 256.808 245.083 257.747 245.936C258.685 246.789 259.837 247.216 261.203 247.216C263.165 247.216 264.552 246.395 265.363 244.752H269.299C268.765 246.373 267.795 247.707 266.387 248.752C265 249.776 263.272 250.288 261.203 250.288C259.517 250.288 258.003 249.915 256.659 249.168C255.336 248.4 254.291 247.333 253.523 245.968C252.776 244.581 252.403 242.981 252.403 241.168C252.403 239.355 252.765 237.765 253.491 236.4C254.237 235.013 255.272 233.947 256.595 233.2C257.939 232.453 259.475 232.08 261.203 232.08C262.867 232.08 264.349 232.443 265.651 233.168C266.952 233.893 267.965 234.917 268.691 236.24C269.416 237.541 269.779 239.045 269.779 240.752ZM265.971 239.6C265.949 238.256 265.469 237.179 264.531 236.368C263.592 235.557 262.429 235.152 261.043 235.152C259.784 235.152 258.707 235.557 257.811 236.368C256.915 237.157 256.381 238.235 256.211 239.6H265.971ZM272.153 241.168C272.153 239.355 272.515 237.765 273.241 236.4C273.987 235.013 275.011 233.947 276.313 233.2C277.614 232.453 279.107 232.08 280.793 232.08C282.926 232.08 284.686 232.592 286.073 233.616C287.481 234.619 288.43 236.059 288.921 237.936H284.985C284.665 237.061 284.153 236.379 283.449 235.888C282.745 235.397 281.859 235.152 280.793 235.152C279.299 235.152 278.105 235.685 277.209 236.752C276.334 237.797 275.897 239.269 275.897 241.168C275.897 243.067 276.334 244.549 277.209 245.616C278.105 246.683 279.299 247.216 280.793 247.216C282.905 247.216 284.302 246.288 284.985 244.432H288.921C288.409 246.224 287.449 247.653 286.041 248.72C284.633 249.765 282.883 250.288 280.793 250.288C279.107 250.288 277.614 249.915 276.313 249.168C275.011 248.4 273.987 247.333 273.241 245.968C272.515 244.581 272.153 242.981 272.153 241.168ZM296.812 235.344V245.104C296.812 245.765 296.962 246.245 297.26 246.544C297.58 246.821 298.114 246.96 298.86 246.96H301.1V250H298.22C296.578 250 295.319 249.616 294.444 248.848C293.57 248.08 293.132 246.832 293.132 245.104V235.344H291.052V232.368H293.132V227.984H296.812V232.368H301.1V235.344H296.812ZM306.319 230.032C305.657 230.032 305.103 229.808 304.655 229.36C304.207 228.912 303.983 228.357 303.983 227.696C303.983 227.035 304.207 226.48 304.655 226.032C305.103 225.584 305.657 225.36 306.319 225.36C306.959 225.36 307.503 225.584 307.951 226.032C308.399 226.48 308.623 227.035 308.623 227.696C308.623 228.357 308.399 228.912 307.951 229.36C307.503 229.808 306.959 230.032 306.319 230.032ZM308.111 232.368V250H304.463V232.368H308.111ZM320.548 250.288C318.884 250.288 317.38 249.915 316.036 249.168C314.692 248.4 313.636 247.333 312.868 245.968C312.1 244.581 311.716 242.981 311.716 241.168C311.716 239.376 312.111 237.787 312.9 236.4C313.689 235.013 314.767 233.947 316.132 233.2C317.497 232.453 319.023 232.08 320.708 232.08C322.393 232.08 323.919 232.453 325.284 233.2C326.649 233.947 327.727 235.013 328.516 236.4C329.305 237.787 329.7 239.376 329.7 241.168C329.7 242.96 329.295 244.549 328.484 245.936C327.673 247.323 326.564 248.4 325.156 249.168C323.769 249.915 322.233 250.288 320.548 250.288ZM320.548 247.12C321.487 247.12 322.361 246.896 323.172 246.448C324.004 246 324.676 245.328 325.188 244.432C325.7 243.536 325.956 242.448 325.956 241.168C325.956 239.888 325.711 238.811 325.22 237.936C324.729 237.04 324.079 236.368 323.268 235.92C322.457 235.472 321.583 235.248 320.644 235.248C319.705 235.248 318.831 235.472 318.02 235.92C317.231 236.368 316.601 237.04 316.132 237.936C315.663 238.811 315.428 239.888 315.428 241.168C315.428 243.067 315.908 244.539 316.868 245.584C317.849 246.608 319.076 247.12 320.548 247.12ZM342.202 232.08C343.589 232.08 344.826 232.368 345.914 232.944C347.024 233.52 347.888 234.373 348.506 235.504C349.125 236.635 349.434 238 349.434 239.6V250H345.818V240.144C345.818 238.565 345.424 237.36 344.634 236.528C343.845 235.675 342.768 235.248 341.402 235.248C340.037 235.248 338.949 235.675 338.138 236.528C337.349 237.36 336.954 238.565 336.954 240.144V250H333.306V232.368H336.954V234.384C337.552 233.659 338.309 233.093 339.226 232.688C340.165 232.283 341.157 232.08 342.202 232.08ZM360.488 250.288C359.101 250.288 357.853 250.043 356.744 249.552C355.656 249.04 354.792 248.357 354.152 247.504C353.512 246.629 353.17 245.659 353.128 244.592H356.904C356.968 245.339 357.32 245.968 357.96 246.48C358.621 246.971 359.442 247.216 360.424 247.216C361.448 247.216 362.237 247.024 362.792 246.64C363.368 246.235 363.656 245.723 363.656 245.104C363.656 244.443 363.336 243.952 362.696 243.632C362.077 243.312 361.085 242.96 359.72 242.576C358.397 242.213 357.32 241.861 356.488 241.52C355.656 241.179 354.93 240.656 354.312 239.952C353.714 239.248 353.416 238.32 353.416 237.168C353.416 236.229 353.693 235.376 354.248 234.608C354.802 233.819 355.592 233.2 356.616 232.752C357.661 232.304 358.856 232.08 360.2 232.08C362.205 232.08 363.816 232.592 365.032 233.616C366.269 234.619 366.93 235.995 367.016 237.744H363.368C363.304 236.955 362.984 236.325 362.408 235.856C361.832 235.387 361.053 235.152 360.072 235.152C359.112 235.152 358.376 235.333 357.864 235.696C357.352 236.059 357.096 236.539 357.096 237.136C357.096 237.605 357.266 238 357.608 238.32C357.949 238.64 358.365 238.896 358.856 239.088C359.346 239.259 360.072 239.483 361.032 239.76C362.312 240.101 363.357 240.453 364.168 240.816C365 241.157 365.714 241.669 366.312 242.352C366.909 243.035 367.218 243.941 367.24 245.072C367.24 246.075 366.962 246.971 366.408 247.76C365.853 248.549 365.064 249.168 364.04 249.616C363.037 250.064 361.853 250.288 360.488 250.288Z" fill="#B62D8F"/>
<path d="M183.888 417.624C183.888 415.992 184.264 414.528 185.016 413.232C185.784 411.936 186.816 410.928 188.112 410.208C189.424 409.472 190.856 409.104 192.408 409.104C194.184 409.104 195.76 409.544 197.136 410.424C198.528 411.288 199.536 412.52 200.16 414.12H196.872C196.44 413.24 195.84 412.584 195.072 412.152C194.304 411.72 193.416 411.504 192.408 411.504C191.304 411.504 190.32 411.752 189.456 412.248C188.592 412.744 187.912 413.456 187.416 414.384C186.936 415.312 186.696 416.392 186.696 417.624C186.696 418.856 186.936 419.936 187.416 420.864C187.912 421.792 188.592 422.512 189.456 423.024C190.32 423.52 191.304 423.768 192.408 423.768C193.416 423.768 194.304 423.552 195.072 423.12C195.84 422.688 196.44 422.032 196.872 421.152H200.16C199.536 422.752 198.528 423.984 197.136 424.848C195.76 425.712 194.184 426.144 192.408 426.144C190.84 426.144 189.408 425.784 188.112 425.064C186.816 424.328 185.784 423.312 185.016 422.016C184.264 420.72 183.888 419.256 183.888 417.624ZM206.099 414.696C206.499 414.024 207.027 413.504 207.683 413.136C208.355 412.752 209.147 412.56 210.059 412.56V415.392H209.363C208.291 415.392 207.475 415.664 206.915 416.208C206.371 416.752 206.099 417.696 206.099 419.04V426H203.363V412.776H206.099V414.696ZM224.477 412.776L216.365 432.216H213.533L216.221 425.784L211.013 412.776H214.061L217.781 422.856L221.645 412.776H224.477ZM229.278 414.72C229.742 414.112 230.374 413.6 231.174 413.184C231.974 412.768 232.878 412.56 233.886 412.56C235.038 412.56 236.086 412.848 237.03 413.424C237.99 413.984 238.742 414.776 239.286 415.8C239.83 416.824 240.102 418 240.102 419.328C240.102 420.656 239.83 421.848 239.286 422.904C238.742 423.944 237.99 424.76 237.03 425.352C236.086 425.928 235.038 426.216 233.886 426.216C232.878 426.216 231.982 426.016 231.198 425.616C230.414 425.2 229.774 424.688 229.278 424.08V432.288H226.542V412.776H229.278V414.72ZM237.318 419.328C237.318 418.416 237.126 417.632 236.742 416.976C236.374 416.304 235.878 415.8 235.254 415.464C234.646 415.112 233.99 414.936 233.286 414.936C232.598 414.936 231.942 415.112 231.318 415.464C230.71 415.816 230.214 416.328 229.83 417C229.462 417.672 229.278 418.464 229.278 419.376C229.278 420.288 229.462 421.088 229.83 421.776C230.214 422.448 230.71 422.96 231.318 423.312C231.942 423.664 232.598 423.84 233.286 423.84C233.99 423.84 234.646 423.664 235.254 423.312C235.878 422.944 236.374 422.416 236.742 421.728C237.126 421.04 237.318 420.24 237.318 419.328ZM246 415.008V422.328C246 422.824 246.112 423.184 246.336 423.408C246.576 423.616 246.976 423.72 247.536 423.72H249.216V426H247.056C245.824 426 244.88 425.712 244.224 425.136C243.568 424.56 243.24 423.624 243.24 422.328V415.008H241.68V412.776H243.24V409.488H246V412.776H249.216V415.008H246ZM257.474 426.216C256.226 426.216 255.098 425.936 254.09 425.376C253.082 424.8 252.29 424 251.714 422.976C251.138 421.936 250.85 420.736 250.85 419.376C250.85 418.032 251.146 416.84 251.738 415.8C252.33 414.76 253.138 413.96 254.162 413.4C255.186 412.84 256.33 412.56 257.594 412.56C258.858 412.56 260.002 412.84 261.026 413.4C262.05 413.96 262.858 414.76 263.45 415.8C264.042 416.84 264.338 418.032 264.338 419.376C264.338 420.72 264.034 421.912 263.426 422.952C262.818 423.992 261.986 424.8 260.93 425.376C259.89 425.936 258.738 426.216 257.474 426.216ZM257.474 423.84C258.178 423.84 258.834 423.672 259.442 423.336C260.066 423 260.57 422.496 260.954 421.824C261.338 421.152 261.53 420.336 261.53 419.376C261.53 418.416 261.346 417.608 260.978 416.952C260.61 416.28 260.122 415.776 259.514 415.44C258.906 415.104 258.25 414.936 257.546 414.936C256.842 414.936 256.186 415.104 255.578 415.44C254.986 415.776 254.514 416.28 254.162 416.952C253.81 417.608 253.634 418.416 253.634 419.376C253.634 420.8 253.994 421.904 254.714 422.688C255.45 423.456 256.37 423.84 257.474 423.84Z" fill="#B62D8F"/>
<path d="M48.1889 254.432C49.0849 254.592 49.8449 255.064 50.4689 255.848C51.0929 256.632 51.4049 257.52 51.4049 258.512C51.4049 259.36 51.1809 260.128 50.7329 260.816C50.3009 261.488 49.6689 262.024 48.8369 262.424C48.0049 262.808 47.0369 263 45.9329 263H39.2609V246.32H45.6209C46.7569 246.32 47.7329 246.512 48.5489 246.896C49.3649 247.28 49.9809 247.8 50.3969 248.456C50.8129 249.096 51.0209 249.816 51.0209 250.616C51.0209 251.576 50.7649 252.376 50.2529 253.016C49.7409 253.656 49.0529 254.128 48.1889 254.432ZM41.9969 253.328H45.3809C46.2769 253.328 46.9729 253.128 47.4689 252.728C47.9809 252.312 48.2369 251.72 48.2369 250.952C48.2369 250.2 47.9809 249.616 47.4689 249.2C46.9729 248.768 46.2769 248.552 45.3809 248.552H41.9969V253.328ZM45.6929 260.768C46.6209 260.768 47.3489 260.544 47.8769 260.096C48.4049 259.648 48.6689 259.024 48.6689 258.224C48.6689 257.408 48.3889 256.76 47.8289 256.28C47.2689 255.8 46.5249 255.56 45.5969 255.56H41.9969V260.768H45.6929ZM53.4661 256.328C53.4661 255 53.7381 253.824 54.2821 252.8C54.8421 251.776 55.5941 250.984 56.5381 250.424C57.4981 249.848 58.5541 249.56 59.7061 249.56C60.7461 249.56 61.6501 249.768 62.4181 250.184C63.2021 250.584 63.8261 251.088 64.2901 251.696V249.776H67.0501V263H64.2901V261.032C63.8261 261.656 63.1941 262.176 62.3941 262.592C61.5941 263.008 60.6821 263.216 59.6581 263.216C58.5221 263.216 57.4821 262.928 56.5381 262.352C55.5941 261.76 54.8421 260.944 54.2821 259.904C53.7381 258.848 53.4661 257.656 53.4661 256.328ZM64.2901 256.376C64.2901 255.464 64.0981 254.672 63.7141 254C63.3461 253.328 62.8581 252.816 62.2501 252.464C61.6421 252.112 60.9861 251.936 60.2821 251.936C59.5781 251.936 58.9221 252.112 58.3141 252.464C57.7061 252.8 57.2101 253.304 56.8261 253.976C56.4581 254.632 56.2741 255.416 56.2741 256.328C56.2741 257.24 56.4581 258.04 56.8261 258.728C57.2101 259.416 57.7061 259.944 58.3141 260.312C58.9381 260.664 59.5941 260.84 60.2821 260.84C60.9861 260.84 61.6421 260.664 62.2501 260.312C62.8581 259.96 63.3461 259.448 63.7141 258.776C64.0981 258.088 64.2901 257.288 64.2901 256.376ZM77.3158 249.56C78.3558 249.56 79.2838 249.776 80.0998 250.208C80.9318 250.64 81.5798 251.28 82.0438 252.128C82.5078 252.976 82.7398 254 82.7398 255.2V263H80.0278V255.608C80.0278 254.424 79.7318 253.52 79.1398 252.896C78.5478 252.256 77.7398 251.936 76.7158 251.936C75.6918 251.936 74.8758 252.256 74.2678 252.896C73.6758 253.52 73.3798 254.424 73.3798 255.608V263H70.6438V249.776H73.3798V251.288C73.8278 250.744 74.3958 250.32 75.0838 250.016C75.7878 249.712 76.5318 249.56 77.3158 249.56ZM91.4617 256.4L97.5577 263H93.8617L88.9657 257.312V263H86.2297V245.24H88.9657V255.56L93.7657 249.776H97.5577L91.4617 256.4ZM104.319 263.216C103.279 263.216 102.343 263.032 101.511 262.664C100.695 262.28 100.047 261.768 99.5668 261.128C99.0868 260.472 98.8308 259.744 98.7988 258.944H101.631C101.679 259.504 101.943 259.976 102.423 260.36C102.919 260.728 103.535 260.912 104.271 260.912C105.039 260.912 105.631 260.768 106.047 260.48C106.479 260.176 106.695 259.792 106.695 259.328C106.695 258.832 106.455 258.464 105.975 258.224C105.511 257.984 104.767 257.72 103.743 257.432C102.751 257.16 101.943 256.896 101.319 256.64C100.695 256.384 100.151 255.992 99.6868 255.464C99.2388 254.936 99.0148 254.24 99.0148 253.376C99.0148 252.672 99.2228 252.032 99.6388 251.456C100.055 250.864 100.647 250.4 101.415 250.064C102.199 249.728 103.095 249.56 104.103 249.56C105.607 249.56 106.815 249.944 107.727 250.712C108.655 251.464 109.151 252.496 109.215 253.808H106.479C106.431 253.216 106.191 252.744 105.759 252.392C105.327 252.04 104.743 251.864 104.007 251.864C103.287 251.864 102.735 252 102.351 252.272C101.967 252.544 101.775 252.904 101.775 253.352C101.775 253.704 101.903 254 102.159 254.24C102.415 254.48 102.727 254.672 103.095 254.816C103.463 254.944 104.007 255.112 104.727 255.32C105.687 255.576 106.471 255.84 107.079 256.112C107.703 256.368 108.239 256.752 108.687 257.264C109.135 257.776 109.367 258.456 109.383 259.304C109.383 260.056 109.175 260.728 108.759 261.32C108.343 261.912 107.751 262.376 106.983 262.712C106.231 263.048 105.343 263.216 104.319 263.216Z" fill="#4C7AA3"/>
<path d="M399.08 360.88V372H397.256V367.136H392.024V372H390.2V360.88H392.024V365.648H397.256V360.88H399.08ZM409.561 367.376C409.561 367.707 409.54 368.005 409.497 368.272H402.761C402.815 368.976 403.076 369.541 403.545 369.968C404.015 370.395 404.591 370.608 405.273 370.608C406.255 370.608 406.948 370.197 407.353 369.376H409.321C409.055 370.187 408.569 370.853 407.865 371.376C407.172 371.888 406.308 372.144 405.273 372.144C404.431 372.144 403.673 371.957 403.001 371.584C402.34 371.2 401.817 370.667 401.433 369.984C401.06 369.291 400.873 368.491 400.873 367.584C400.873 366.677 401.055 365.883 401.417 365.2C401.791 364.507 402.308 363.973 402.969 363.6C403.641 363.227 404.409 363.04 405.273 363.04C406.105 363.04 406.847 363.221 407.497 363.584C408.148 363.947 408.655 364.459 409.017 365.12C409.38 365.771 409.561 366.523 409.561 367.376ZM407.657 366.8C407.647 366.128 407.407 365.589 406.937 365.184C406.468 364.779 405.887 364.576 405.193 364.576C404.564 364.576 404.025 364.779 403.577 365.184C403.129 365.579 402.863 366.117 402.777 366.8H407.657ZM410.748 367.552C410.748 366.667 410.93 365.883 411.292 365.2C411.666 364.517 412.167 363.989 412.796 363.616C413.436 363.232 414.14 363.04 414.908 363.04C415.602 363.04 416.204 363.179 416.716 363.456C417.239 363.723 417.655 364.059 417.964 364.464V363.184H419.804V372H417.964V370.688C417.655 371.104 417.234 371.451 416.7 371.728C416.167 372.005 415.559 372.144 414.876 372.144C414.119 372.144 413.426 371.952 412.796 371.568C412.167 371.173 411.666 370.629 411.292 369.936C410.93 369.232 410.748 368.437 410.748 367.552ZM417.964 367.584C417.964 366.976 417.836 366.448 417.58 366C417.335 365.552 417.01 365.211 416.604 364.976C416.199 364.741 415.762 364.624 415.292 364.624C414.823 364.624 414.386 364.741 413.98 364.976C413.575 365.2 413.244 365.536 412.988 365.984C412.743 366.421 412.62 366.944 412.62 367.552C412.62 368.16 412.743 368.693 412.988 369.152C413.244 369.611 413.575 369.963 413.98 370.208C414.396 370.443 414.834 370.56 415.292 370.56C415.762 370.56 416.199 370.443 416.604 370.208C417.01 369.973 417.335 369.632 417.58 369.184C417.836 368.725 417.964 368.192 417.964 367.584ZM424.024 360.16V372H422.2V360.16H424.024ZM428.547 364.672V369.552C428.547 369.883 428.621 370.123 428.771 370.272C428.931 370.411 429.197 370.48 429.571 370.48H430.691V372H429.251C428.429 372 427.8 371.808 427.363 371.424C426.925 371.04 426.707 370.416 426.707 369.552V364.672H425.667V363.184H426.707V360.992H428.547V363.184H430.691V364.672H428.547ZM436.932 363.04C437.604 363.04 438.201 363.184 438.724 363.472C439.257 363.76 439.673 364.187 439.972 364.752C440.281 365.317 440.436 366 440.436 366.8V372H438.628V367.072C438.628 366.283 438.431 365.68 438.036 365.264C437.641 364.837 437.103 364.624 436.42 364.624C435.737 364.624 435.193 364.837 434.788 365.264C434.393 365.68 434.196 366.283 434.196 367.072V372H432.372V360.16H434.196V364.208C434.505 363.835 434.895 363.547 435.364 363.344C435.844 363.141 436.367 363.04 436.932 363.04ZM442.155 367.584C442.155 366.677 442.336 365.883 442.699 365.2C443.072 364.507 443.584 363.973 444.235 363.6C444.885 363.227 445.632 363.04 446.475 363.04C447.541 363.04 448.421 363.296 449.115 363.808C449.819 364.309 450.293 365.029 450.539 365.968H448.571C448.411 365.531 448.155 365.189 447.803 364.944C447.451 364.699 447.008 364.576 446.475 364.576C445.728 364.576 445.131 364.843 444.683 365.376C444.245 365.899 444.027 366.635 444.027 367.584C444.027 368.533 444.245 369.275 444.683 369.808C445.131 370.341 445.728 370.608 446.475 370.608C447.531 370.608 448.229 370.144 448.571 369.216H450.539C450.283 370.112 449.803 370.827 449.099 371.36C448.395 371.883 447.52 372.144 446.475 372.144C445.632 372.144 444.885 371.957 444.235 371.584C443.584 371.2 443.072 370.667 442.699 369.984C442.336 369.291 442.155 368.491 442.155 367.584ZM451.748 367.552C451.748 366.667 451.93 365.883 452.292 365.2C452.666 364.517 453.167 363.989 453.796 363.616C454.436 363.232 455.14 363.04 455.908 363.04C456.602 363.04 457.204 363.179 457.716 363.456C458.239 363.723 458.655 364.059 458.964 364.464V363.184H460.804V372H458.964V370.688C458.655 371.104 458.234 371.451 457.7 371.728C457.167 372.005 456.559 372.144 455.876 372.144C455.119 372.144 454.426 371.952 453.796 371.568C453.167 371.173 452.666 370.629 452.292 369.936C451.93 369.232 451.748 368.437 451.748 367.552ZM458.964 367.584C458.964 366.976 458.836 366.448 458.58 366C458.335 365.552 458.01 365.211 457.604 364.976C457.199 364.741 456.762 364.624 456.292 364.624C455.823 364.624 455.386 364.741 454.98 364.976C454.575 365.2 454.244 365.536 453.988 365.984C453.743 366.421 453.62 366.944 453.62 367.552C453.62 368.16 453.743 368.693 453.988 369.152C454.244 369.611 454.575 369.963 454.98 370.208C455.396 370.443 455.834 370.56 456.292 370.56C456.762 370.56 457.199 370.443 457.604 370.208C458.01 369.973 458.335 369.632 458.58 369.184C458.836 368.725 458.964 368.192 458.964 367.584ZM465.024 364.464C465.291 364.016 465.643 363.669 466.08 363.424C466.528 363.168 467.056 363.04 467.664 363.04V364.928H467.2C466.485 364.928 465.941 365.109 465.568 365.472C465.205 365.835 465.024 366.464 465.024 367.36V372H463.2V363.184H465.024V364.464ZM477.421 367.376C477.421 367.707 477.399 368.005 477.357 368.272H470.621C470.674 368.976 470.935 369.541 471.405 369.968C471.874 370.395 472.45 370.608 473.133 370.608C474.114 370.608 474.807 370.197 475.213 369.376H477.181C476.914 370.187 476.429 370.853 475.725 371.376C475.031 371.888 474.167 372.144 473.133 372.144C472.29 372.144 471.533 371.957 470.861 371.584C470.199 371.2 469.677 370.667 469.293 369.984C468.919 369.291 468.733 368.491 468.733 367.584C468.733 366.677 468.914 365.883 469.277 365.2C469.65 364.507 470.167 363.973 470.829 363.6C471.501 363.227 472.269 363.04 473.133 363.04C473.965 363.04 474.706 363.221 475.357 363.584C476.007 363.947 476.514 364.459 476.877 365.12C477.239 365.771 477.421 366.523 477.421 367.376ZM475.517 366.8C475.506 366.128 475.266 365.589 474.797 365.184C474.327 364.779 473.746 364.576 473.053 364.576C472.423 364.576 471.885 364.779 471.437 365.184C470.989 365.579 470.722 366.117 470.637 366.8H475.517Z" fill="#4C7AA3"/>
<path d="M396.744 56.88V58.368H392.024V61.648H395.704V63.136H392.024V68H390.2V56.88H396.744ZM399.362 58.016C399.032 58.016 398.754 57.904 398.53 57.68C398.306 57.456 398.194 57.1787 398.194 56.848C398.194 56.5173 398.306 56.24 398.53 56.016C398.754 55.792 399.032 55.68 399.362 55.68C399.682 55.68 399.954 55.792 400.178 56.016C400.402 56.24 400.514 56.5173 400.514 56.848C400.514 57.1787 400.402 57.456 400.178 57.68C399.954 57.904 399.682 58.016 399.362 58.016ZM400.258 59.184V68H398.434V59.184H400.258ZM407.101 59.04C407.794 59.04 408.413 59.184 408.957 59.472C409.512 59.76 409.944 60.1867 410.253 60.752C410.562 61.3173 410.717 62 410.717 62.8V68H408.909V63.072C408.909 62.2827 408.712 61.68 408.317 61.264C407.922 60.8373 407.384 60.624 406.701 60.624C406.018 60.624 405.474 60.8373 405.069 61.264C404.674 61.68 404.477 62.2827 404.477 63.072V68H402.653V59.184H404.477V60.192C404.776 59.8293 405.154 59.5467 405.613 59.344C406.082 59.1413 406.578 59.04 407.101 59.04ZM412.436 63.552C412.436 62.6667 412.617 61.8827 412.98 61.2C413.353 60.5173 413.854 59.9893 414.484 59.616C415.124 59.232 415.828 59.04 416.596 59.04C417.289 59.04 417.892 59.1787 418.404 59.456C418.926 59.7227 419.342 60.0587 419.652 60.464V59.184H421.492V68H419.652V66.688C419.342 67.104 418.921 67.4507 418.388 67.728C417.854 68.0053 417.246 68.144 416.564 68.144C415.806 68.144 415.113 67.952 414.484 67.568C413.854 67.1733 413.353 66.6293 412.98 65.936C412.617 65.232 412.436 64.4373 412.436 63.552ZM419.652 63.584C419.652 62.976 419.524 62.448 419.268 62C419.022 61.552 418.697 61.2107 418.292 60.976C417.886 60.7413 417.449 60.624 416.98 60.624C416.51 60.624 416.073 60.7413 415.668 60.976C415.262 61.2 414.932 61.536 414.676 61.984C414.43 62.4213 414.308 62.944 414.308 63.552C414.308 64.16 414.43 64.6933 414.676 65.152C414.932 65.6107 415.262 65.9627 415.668 66.208C416.084 66.4427 416.521 66.56 416.98 66.56C417.449 66.56 417.886 66.4427 418.292 66.208C418.697 65.9733 419.022 65.632 419.268 65.184C419.524 64.7253 419.652 64.192 419.652 63.584ZM428.336 59.04C429.029 59.04 429.648 59.184 430.192 59.472C430.746 59.76 431.178 60.1867 431.488 60.752C431.797 61.3173 431.952 62 431.952 62.8V68H430.144V63.072C430.144 62.2827 429.946 61.68 429.552 61.264C429.157 60.8373 428.618 60.624 427.936 60.624C427.253 60.624 426.709 60.8373 426.304 61.264C425.909 61.68 425.712 62.2827 425.712 63.072V68H423.888V59.184H425.712V60.192C426.01 59.8293 426.389 59.5467 426.848 59.344C427.317 59.1413 427.813 59.04 428.336 59.04ZM433.67 63.584C433.67 62.6773 433.851 61.8827 434.214 61.2C434.587 60.5067 435.099 59.9733 435.75 59.6C436.401 59.2267 437.147 59.04 437.99 59.04C439.057 59.04 439.937 59.296 440.63 59.808C441.334 60.3093 441.809 61.0293 442.054 61.968H440.086C439.926 61.5307 439.67 61.1893 439.318 60.944C438.966 60.6987 438.523 60.576 437.99 60.576C437.243 60.576 436.646 60.8427 436.198 61.376C435.761 61.8987 435.542 62.6347 435.542 63.584C435.542 64.5333 435.761 65.2747 436.198 65.808C436.646 66.3413 437.243 66.608 437.99 66.608C439.046 66.608 439.745 66.144 440.086 65.216H442.054C441.798 66.112 441.318 66.8267 440.614 67.36C439.91 67.8827 439.035 68.144 437.99 68.144C437.147 68.144 436.401 67.9573 435.75 67.584C435.099 67.2 434.587 66.6667 434.214 65.984C433.851 65.2907 433.67 64.4907 433.67 63.584ZM451.952 63.376C451.952 63.7067 451.931 64.0053 451.888 64.272H445.152C445.205 64.976 445.467 65.5413 445.936 65.968C446.405 66.3947 446.981 66.608 447.664 66.608C448.645 66.608 449.339 66.1973 449.744 65.376H451.712C451.445 66.1867 450.96 66.8533 450.256 67.376C449.563 67.888 448.699 68.144 447.664 68.144C446.821 68.144 446.064 67.9573 445.392 67.584C444.731 67.2 444.208 66.6667 443.824 65.984C443.451 65.2907 443.264 64.4907 443.264 63.584C443.264 62.6773 443.445 61.8827 443.808 61.2C444.181 60.5067 444.699 59.9733 445.36 59.6C446.032 59.2267 446.8 59.04 447.664 59.04C448.496 59.04 449.237 59.2213 449.888 59.584C450.539 59.9467 451.045 60.4587 451.408 61.12C451.771 61.7707 451.952 62.5227 451.952 63.376ZM450.048 62.8C450.037 62.128 449.797 61.5893 449.328 61.184C448.859 60.7787 448.277 60.576 447.584 60.576C446.955 60.576 446.416 60.7787 445.968 61.184C445.52 61.5787 445.253 62.1173 445.168 62.8H450.048Z" fill="#4C7AA3"/>
<path d="M113.256 87.098C112.603 87.098 112.015 86.986 111.492 86.762C110.969 86.5287 110.559 86.202 110.26 85.782C109.961 85.362 109.812 84.872 109.812 84.312H111.52C111.557 84.732 111.721 85.0773 112.01 85.348C112.309 85.6187 112.724 85.754 113.256 85.754C113.807 85.754 114.236 85.6233 114.544 85.362C114.852 85.0913 115.006 84.746 115.006 84.326C115.006 83.9993 114.908 83.7333 114.712 83.528C114.525 83.3227 114.287 83.164 113.998 83.052C113.718 82.94 113.326 82.8187 112.822 82.688C112.187 82.52 111.669 82.352 111.268 82.184C110.876 82.0067 110.54 81.736 110.26 81.372C109.98 81.008 109.84 80.5227 109.84 79.916C109.84 79.356 109.98 78.866 110.26 78.446C110.54 78.026 110.932 77.704 111.436 77.48C111.94 77.256 112.523 77.144 113.186 77.144C114.129 77.144 114.899 77.382 115.496 77.858C116.103 78.3247 116.439 78.9687 116.504 79.79H114.74C114.712 79.4353 114.544 79.132 114.236 78.88C113.928 78.628 113.522 78.502 113.018 78.502C112.561 78.502 112.187 78.6187 111.898 78.852C111.609 79.0853 111.464 79.4213 111.464 79.86C111.464 80.1587 111.553 80.406 111.73 80.602C111.917 80.7887 112.15 80.938 112.43 81.05C112.71 81.162 113.093 81.2833 113.578 81.414C114.222 81.5913 114.745 81.7687 115.146 81.946C115.557 82.1233 115.902 82.3987 116.182 82.772C116.471 83.136 116.616 83.626 116.616 84.242C116.616 84.7367 116.481 85.2033 116.21 85.642C115.949 86.0807 115.561 86.4353 115.048 86.706C114.544 86.9673 113.947 87.098 113.256 87.098ZM120.361 80.588V84.858C120.361 85.1473 120.427 85.3573 120.557 85.488C120.697 85.6093 120.931 85.67 121.257 85.67H122.237V87H120.977C120.259 87 119.708 86.832 119.325 86.496C118.943 86.16 118.751 85.614 118.751 84.858V80.588H117.841V79.286H118.751V77.368H120.361V79.286H122.237V80.588H120.361ZM123.176 83.108C123.176 82.3333 123.335 81.6473 123.652 81.05C123.979 80.4527 124.418 79.9907 124.968 79.664C125.528 79.328 126.144 79.16 126.816 79.16C127.423 79.16 127.95 79.2813 128.398 79.524C128.856 79.7573 129.22 80.0513 129.49 80.406V79.286H131.1V87H129.49V85.852C129.22 86.216 128.851 86.5193 128.384 86.762C127.918 87.0047 127.386 87.126 126.788 87.126C126.126 87.126 125.519 86.958 124.968 86.622C124.418 86.2767 123.979 85.8007 123.652 85.194C123.335 84.578 123.176 83.8827 123.176 83.108ZM129.49 83.136C129.49 82.604 129.378 82.142 129.154 81.75C128.94 81.358 128.655 81.0593 128.3 80.854C127.946 80.6487 127.563 80.546 127.152 80.546C126.742 80.546 126.359 80.6487 126.004 80.854C125.65 81.05 125.36 81.344 125.136 81.736C124.922 82.1187 124.814 82.576 124.814 83.108C124.814 83.64 124.922 84.1067 125.136 84.508C125.36 84.9093 125.65 85.2173 126.004 85.432C126.368 85.6373 126.751 85.74 127.152 85.74C127.563 85.74 127.946 85.6373 128.3 85.432C128.655 85.2267 128.94 84.928 129.154 84.536C129.378 84.1347 129.49 83.668 129.49 83.136ZM134.792 80.406C135.026 80.014 135.334 79.7107 135.716 79.496C136.108 79.272 136.57 79.16 137.102 79.16V80.812H136.696C136.071 80.812 135.595 80.9707 135.268 81.288C134.951 81.6053 134.792 82.156 134.792 82.94V87H133.196V79.286H134.792V80.406ZM140.432 80.588V84.858C140.432 85.1473 140.497 85.3573 140.628 85.488C140.768 85.6093 141.001 85.67 141.328 85.67H142.308V87H141.048C140.329 87 139.778 86.832 139.396 86.496C139.013 86.16 138.822 85.614 138.822 84.858V80.588H137.912V79.286H138.822V77.368H140.432V79.286H142.308V80.588H140.432ZM149.701 81.26V82.604H143.947V81.26H149.701ZM153.55 77.27V83.472C153.55 84.2093 153.741 84.7647 154.124 85.138C154.516 85.5113 155.057 85.698 155.748 85.698C156.448 85.698 156.989 85.5113 157.372 85.138C157.764 84.7647 157.96 84.2093 157.96 83.472V77.27H159.556V83.444C159.556 84.2373 159.383 84.9093 159.038 85.46C158.693 86.0107 158.231 86.4213 157.652 86.692C157.073 86.9627 156.434 87.098 155.734 87.098C155.034 87.098 154.395 86.9627 153.816 86.692C153.247 86.4213 152.794 86.0107 152.458 85.46C152.122 84.9093 151.954 84.2373 151.954 83.444V77.27H153.55ZM163.23 80.42C163.501 80.0653 163.869 79.7667 164.336 79.524C164.803 79.2813 165.33 79.16 165.918 79.16C166.59 79.16 167.201 79.328 167.752 79.664C168.312 79.9907 168.751 80.4527 169.068 81.05C169.385 81.6473 169.544 82.3333 169.544 83.108C169.544 83.8827 169.385 84.578 169.068 85.194C168.751 85.8007 168.312 86.2767 167.752 86.622C167.201 86.958 166.59 87.126 165.918 87.126C165.33 87.126 164.807 87.0093 164.35 86.776C163.893 86.5333 163.519 86.2347 163.23 85.88V90.668H161.634V79.286H163.23V80.42ZM167.92 83.108C167.92 82.576 167.808 82.1187 167.584 81.736C167.369 81.344 167.08 81.05 166.716 80.854C166.361 80.6487 165.979 80.546 165.568 80.546C165.167 80.546 164.784 80.6487 164.42 80.854C164.065 81.0593 163.776 81.358 163.552 81.75C163.337 82.142 163.23 82.604 163.23 83.136C163.23 83.668 163.337 84.1347 163.552 84.536C163.776 84.928 164.065 85.2267 164.42 85.432C164.784 85.6373 165.167 85.74 165.568 85.74C165.979 85.74 166.361 85.6373 166.716 85.432C167.08 85.2173 167.369 84.9093 167.584 84.508C167.808 84.1067 167.92 83.64 167.92 83.108ZM173.922 87.126C173.316 87.126 172.77 87.0187 172.284 86.804C171.808 86.58 171.43 86.2813 171.15 85.908C170.87 85.5253 170.721 85.1007 170.702 84.634H172.354C172.382 84.9607 172.536 85.236 172.816 85.46C173.106 85.6747 173.465 85.782 173.894 85.782C174.342 85.782 174.688 85.698 174.93 85.53C175.182 85.3527 175.308 85.1287 175.308 84.858C175.308 84.5687 175.168 84.354 174.888 84.214C174.618 84.074 174.184 83.92 173.586 83.752C173.008 83.5933 172.536 83.4393 172.172 83.29C171.808 83.1407 171.491 82.912 171.22 82.604C170.959 82.296 170.828 81.89 170.828 81.386C170.828 80.9753 170.95 80.602 171.192 80.266C171.435 79.9207 171.78 79.65 172.228 79.454C172.686 79.258 173.208 79.16 173.796 79.16C174.674 79.16 175.378 79.384 175.91 79.832C176.452 80.2707 176.741 80.8727 176.778 81.638H175.182C175.154 81.2927 175.014 81.0173 174.762 80.812C174.51 80.6067 174.17 80.504 173.74 80.504C173.32 80.504 172.998 80.5833 172.774 80.742C172.55 80.9007 172.438 81.1107 172.438 81.372C172.438 81.5773 172.513 81.75 172.662 81.89C172.812 82.03 172.994 82.142 173.208 82.226C173.423 82.3007 173.74 82.3987 174.16 82.52C174.72 82.6693 175.178 82.8233 175.532 82.982C175.896 83.1313 176.209 83.3553 176.47 83.654C176.732 83.9527 176.867 84.3493 176.876 84.844C176.876 85.2827 176.755 85.6747 176.512 86.02C176.27 86.3653 175.924 86.636 175.476 86.832C175.038 87.028 174.52 87.126 173.922 87.126Z" fill="#B62D8F"/>
<path d="M238.14 207.458V189.526H241.52H341.48H344.924C344.931 189.547 344.941 189.571 344.951 189.6C344.96 189.624 344.968 189.648 344.977 189.672V207.458H238.14Z" stroke="#B62D8F" stroke-width="5"/>
<path d="M295.371 154.24L295.371 154.239C295.336 154.045 295.296 153.851 295.251 153.658L313.696 153.658V174.09V176.177H269.422V174.09V158.836C274.14 161.277 279.065 163.646 282.783 165.412L282.827 165.433L282.872 165.452C283.889 165.888 285.056 166.242 286.443 166.242C288.794 166.242 291.112 165.24 292.762 163.425L292.775 163.411L292.788 163.397C295.044 160.837 295.981 157.598 295.371 154.24Z" stroke="#B62D8F" stroke-width="5"/>
<path d="M302.929 144.66H295.283C289.386 141.63 284.963 139.883 281.749 139.215C280.1 138.872 278.564 138.767 277.231 139.064C275.804 139.382 274.553 140.186 273.859 141.573L273.842 141.608L273.825 141.644C272.99 143.452 273.53 145.193 274.301 146.44C275.053 147.655 276.205 148.741 277.388 149.67C279.783 151.55 282.998 153.318 285.659 154.678L285.703 154.701L285.748 154.721C286.291 154.972 286.649 155.546 286.649 156.216C286.649 156.508 286.551 156.845 286.327 157.132C283.634 155.846 278.116 153.208 272.742 150.436C269.967 149.004 267.253 147.549 264.998 146.235C262.689 144.889 261.047 143.797 260.264 143.085L260.264 143.085C256.002 139.168 250.708 134.446 247.133 131.454L256.833 122.319C257.495 122.836 258.215 123.451 259 124.13C259.116 124.232 259.235 124.334 259.354 124.438C260.073 125.061 260.837 125.724 261.592 126.341C262.471 127.059 263.403 127.771 264.332 128.344C265.234 128.9 266.301 129.434 267.435 129.631L267.45 129.634L267.465 129.636C268.658 129.829 270.26 129.805 271.831 129.746C272.574 129.718 273.367 129.678 274.173 129.638C274.255 129.634 274.337 129.63 274.42 129.626C275.316 129.582 276.232 129.538 277.153 129.505C279.004 129.44 280.816 129.425 282.429 129.546C284.077 129.668 285.325 129.921 286.145 130.28L286.145 130.28L286.157 130.286C286.9 130.607 288.259 131.522 290.128 133.02C291.928 134.462 294.007 136.285 296.134 138.23C298.477 140.372 300.849 142.637 302.929 144.66Z" stroke="#B62D8F" stroke-width="5"/>
<defs>
<linearGradient id="paint0_linear_339_560" x1="113" y1="47.5" x2="199" y2="127" gradientUnits="userSpaceOnUse">
<stop stop-color="white"/>
<stop offset="1" stop-color="white" stop-opacity="0"/>
</linearGradient>
<linearGradient id="paint1_linear_339_560" x1="303" y1="302.5" x2="261" y2="-25.5" gradientUnits="userSpaceOnUse">
<stop stop-color="white"/>
<stop offset="1" stop-color="white" stop-opacity="0"/>
</linearGradient>
<linearGradient id="paint2_linear_339_560" x1="-25" y1="229" x2="144" y2="280" gradientUnits="userSpaceOnUse">
<stop stop-color="white"/>
<stop offset="1" stop-color="white" stop-opacity="0"/>
</linearGradient>
<linearGradient id="paint3_linear_339_560" x1="416" y1="0" x2="378" y2="158.5" gradientUnits="userSpaceOnUse">
<stop stop-color="white"/>
<stop offset="1" stop-color="white" stop-opacity="0"/>
</linearGradient>
<linearGradient id="paint4_linear_339_560" x1="230" y1="492" x2="195" y2="304" gradientUnits="userSpaceOnUse">
<stop stop-color="white"/>
<stop offset="1" stop-color="white" stop-opacity="0"/>
</linearGradient>
<linearGradient id="paint5_linear_339_560" x1="465" y1="409.5" x2="293.5" y2="220.5" gradientUnits="userSpaceOnUse">
<stop stop-color="white"/>
<stop offset="1" stop-color="white" stop-opacity="0"/>
</linearGradient>
</defs>
</svg>
