<svg width="494" height="492" viewBox="0 0 494 492" fill="none" xmlns="http://www.w3.org/2000/svg">
<circle cx="144" cy="82" r="45" fill="url(#paint0_linear_1692_742)"/>
<circle cx="285.5" cy="198.5" r="125.5" fill="url(#paint1_linear_1692_742)"/>
<circle cx="72" cy="252" r="72" fill="url(#paint2_linear_1692_742)"/>
<circle cx="416" cy="60" r="60" fill="url(#paint3_linear_1692_742)"/>
<circle cx="220.5" cy="408.5" r="83.5" fill="url(#paint4_linear_1692_742)"/>
<circle cx="434" cy="366" r="60" fill="url(#paint5_linear_1692_742)"/>
<path d="M305.253 173.481C300.615 168.856 295.627 164.594 290.332 160.732C293.953 158.55 297.754 156.678 301.694 155.138C302.739 154.748 303.718 154.455 304.698 154.162C305.493 155.12 306.516 155.863 307.675 156.324C308.833 156.785 310.089 156.949 311.328 156.8C312.566 156.651 313.747 156.194 314.762 155.472C315.777 154.75 316.594 153.785 317.137 152.666C319.469 152.876 321.668 153.835 323.406 155.398C327.291 159.268 327.389 167.074 323.732 176.798C325.332 178.912 326.801 181.059 328.14 183.303C328.695 182.002 329.283 180.733 329.74 179.465C334.539 166.944 333.919 156.699 328.009 150.91C325.053 148.121 321.202 146.462 317.137 146.227C316.459 144.818 315.353 143.658 313.977 142.91C312.6 142.162 311.022 141.864 309.466 142.058C307.91 142.252 306.455 142.929 305.307 143.992C304.158 145.055 303.374 146.451 303.065 147.983C301.857 148.341 300.649 148.698 299.376 149.186C294.159 151.233 289.161 153.793 284.455 156.829C279.74 153.754 274.731 151.15 269.502 149.056C256.932 144.308 246.647 144.893 240.868 150.78C235.449 156.211 234.567 165.22 238.159 176.343C237.339 177.393 236.818 178.643 236.65 179.963C236.482 181.282 236.673 182.622 237.204 183.843C237.735 185.063 238.586 186.119 239.667 186.899C240.748 187.68 242.02 188.156 243.35 188.279C244.395 190.263 245.537 192.246 246.811 194.198C243.779 198.896 241.23 203.886 239.203 209.093C234.404 221.582 235.024 231.859 240.934 237.616C242.732 239.29 244.849 240.587 247.159 241.431C249.47 242.274 251.927 242.647 254.385 242.527C259.601 242.358 264.743 241.256 269.567 239.275C274.791 237.222 279.8 234.662 284.521 231.632C289.197 234.731 294.174 237.357 299.376 239.47C303.2 240.969 307.208 241.953 311.293 242.397C312.01 243.916 313.219 245.15 314.726 245.902C316.233 246.654 317.949 246.879 319.6 246.541C321.25 246.203 322.739 245.322 323.826 244.039C324.913 242.757 325.536 241.147 325.593 239.47C326.46 238.936 327.27 238.315 328.009 237.616C333.919 231.729 334.539 221.582 329.74 209.093C324.109 195.679 315.775 183.558 305.253 173.481ZM267.184 233.258C257.389 236.998 249.39 236.933 245.472 232.998C241.554 229.062 241.456 221.224 245.243 211.402C246.778 207.479 248.646 203.692 250.826 200.085C254.715 205.339 258.993 210.297 263.625 214.915C265.029 216.313 266.465 217.679 267.902 218.98C269.861 217.983 271.853 216.845 273.877 215.565C271.983 213.874 270.09 212.313 268.261 210.329C260.913 203.137 254.605 194.96 249.52 186.035C250.542 184.98 251.228 183.649 251.494 182.209C251.759 180.768 251.592 179.281 251.014 177.934C250.435 176.587 249.471 175.44 248.241 174.636C247.012 173.833 245.571 173.408 244.101 173.416C241.652 165.285 242.076 158.813 245.505 155.398C246.712 154.338 248.119 153.528 249.643 153.014C251.168 152.5 252.78 152.294 254.385 152.406C258.791 152.552 263.135 153.478 267.216 155.138C271.156 156.678 274.957 158.55 278.578 160.732C273.284 164.594 268.295 168.856 263.658 173.481C262.221 174.912 260.817 176.408 259.446 177.904C260.429 179.964 261.519 181.973 262.711 183.921C264.474 181.937 266.27 179.985 268.196 178.067C273.219 173.068 278.682 168.529 284.521 164.504C290.296 168.545 295.704 173.083 300.682 178.067C305.7 183.069 310.257 188.512 314.297 194.328C310.247 200.136 305.691 205.578 300.682 210.589C291.182 220.339 279.783 228.052 267.184 233.258ZM323.406 232.965L322.883 233.388C322.026 232.664 321.015 232.144 319.926 231.867C318.837 231.589 317.699 231.563 316.598 231.788C315.497 232.014 314.462 232.486 313.571 233.169C312.68 233.852 311.957 234.727 311.456 235.73C308.1 235.3 304.81 234.459 301.661 233.225C297.716 231.698 293.914 229.826 290.299 227.631C295.594 223.77 300.583 219.507 305.22 214.882C309.87 210.281 314.15 205.322 318.019 200.052C320.209 203.659 322.088 207.446 323.634 211.37C327.356 221.224 327.356 229.095 323.406 232.965Z" fill="#407BFF"/>
<path d="M338.516 151.104C340.841 150.726 342.42 148.535 342.043 146.21C341.665 143.885 339.474 142.306 337.149 142.683C334.824 143.061 333.245 145.252 333.622 147.577C334 149.902 336.191 151.481 338.516 151.104Z" fill="#407BFF"/>
<path d="M73.634 250.2C73.064 249.592 64.4 235 53 235C41.6 235 35.216 247.084 34 250.2V257.8H70.366C70.936 258.408 79.6 273 91 273C102.4 273 108.784 260.916 110 257.8V250.2H73.634ZM53 242.6C57.446 242.6 61.284 245.83 64.4 250.2H42.778C44.564 247.046 47.452 242.6 53 242.6ZM91 265.4C86.554 265.4 82.716 262.17 79.6 257.8H101.222C99.436 260.954 96.548 265.4 91 265.4Z" fill="#407BFF"/>
<path d="M464.858 364.333C461.117 363.663 459.247 361.982 459.212 361.953C457.743 360.525 455.335 360.537 453.826 361.907C453.706 362.017 450.814 364.602 444.994 364.602C439.174 364.602 436.283 362.018 436.205 361.952C434.745 360.513 432.337 360.537 430.828 361.907C430.708 362.017 427.816 364.602 421.996 364.602C416.176 364.602 413.292 362.025 413.208 361.954C411.747 360.513 409.345 360.525 407.834 361.919C407.757 361.978 405.887 363.665 402.145 364.333C400.063 364.706 398.684 366.658 399.064 368.694C399.446 370.731 401.433 372.103 403.526 371.708C406.56 371.164 408.883 370.145 410.496 369.219C412.832 370.57 416.661 372.111 422 372.111C427.336 372.111 431.162 370.574 433.499 369.223C435.837 370.574 439.662 372.104 444.998 372.104C450.338 372.104 454.167 370.57 456.503 369.219C458.116 370.149 460.439 371.166 463.473 371.709C465.576 372.104 467.553 370.731 467.935 368.695C468.319 366.665 466.942 364.708 464.858 364.333ZM464.858 381.229C461.117 380.559 459.247 378.879 459.212 378.849C457.749 377.421 455.342 377.429 453.833 378.805C453.706 378.909 450.819 381.499 444.998 381.499C439.176 381.499 436.286 378.914 436.208 378.848C434.745 377.413 432.339 377.428 430.831 378.804C430.708 378.909 427.821 381.499 422 381.499C416.178 381.499 413.288 378.914 413.21 378.848C411.747 377.413 409.344 377.423 407.833 378.808C407.755 378.878 405.884 380.558 402.144 381.229C400.062 381.602 398.683 383.553 399.063 385.59C399.447 387.627 401.435 388.998 403.527 388.599C406.56 388.06 408.883 387.041 410.496 386.115C412.832 387.466 416.666 389 422.005 389C427.341 389 431.162 387.47 433.499 386.119C435.835 387.463 439.668 388.998 445.01 388.998C450.35 388.998 454.173 387.464 456.401 386.113C458.014 387.043 460.337 388.06 463.371 388.603C465.576 388.998 467.553 387.627 467.936 385.588C468.319 383.549 466.942 381.604 464.858 381.229ZM403.527 354.83C406.561 354.288 408.884 353.271 410.497 352.34C412.833 353.691 416.662 355.232 422.001 355.232C427.337 355.232 431.163 353.695 433.5 352.344C435.838 353.695 439.663 355.225 444.999 355.225C450.339 355.225 454.168 353.691 456.504 352.34C458.118 353.271 460.44 354.288 463.474 354.83C465.577 355.226 467.554 353.853 467.936 351.817C468.316 349.78 466.937 347.829 464.855 347.456C461.114 346.785 459.245 345.105 459.21 345.076C457.746 343.647 455.34 343.656 453.831 345.032C453.711 345.142 450.819 347.727 444.999 347.727C439.179 347.727 436.287 345.142 436.209 345.076C434.746 343.641 432.341 343.656 430.833 345.032C430.713 345.142 427.821 347.727 422.001 347.727C416.181 347.727 413.292 345.147 413.208 345.082C411.747 343.646 409.345 343.657 407.834 345.041C407.757 345.111 405.887 346.791 402.145 347.461C400.063 347.835 398.684 349.786 399.064 351.823C399.447 353.858 401.435 355.229 403.527 354.83Z" fill="#407BFF"/>
<path d="M219.48 426.819L231.507 414.846L219.48 402.873L225.472 396.908L237.5 408.881L249.527 396.908L255.52 402.873L243.493 414.846L255.52 426.819L249.527 432.785L237.5 420.812L225.472 432.785L219.48 426.819ZM178 402.154H190.75L200.483 425L212 381H263V389.462H218.588L206.39 436H195.935L185.14 410.615H178V402.154Z" fill="#407BFF"/>
<path d="M419 61C420.657 61 422 59.433 422 57.5C422 55.567 420.657 54 419 54C417.343 54 416 55.567 416 57.5C416 59.433 417.343 61 419 61Z" fill="#407BFF"/>
<path d="M413.5 48C414.328 48 415 47.1046 415 46C415 44.8954 414.328 44 413.5 44C412.672 44 412 44.8954 412 46C412 47.1046 412.672 48 413.5 48Z" fill="#407BFF"/>
<path d="M417.5 41C418.328 41 419 40.3284 419 39.5C419 38.6716 418.328 38 417.5 38C416.672 38 416 38.6716 416 39.5C416 40.3284 416.672 41 417.5 41Z" fill="#407BFF"/>
<path d="M393 22V28.4167H399.429V82.9583C399.429 87.2128 401.122 91.2931 404.136 94.3015C407.15 97.3099 411.238 99 415.5 99C419.762 99 423.85 97.3099 426.864 94.3015C429.878 91.2931 431.571 87.2128 431.571 82.9583V28.4167H438V22H393ZM425.143 28.4167V70.125H415.5C415.5 69.2741 415.161 68.458 414.559 67.8564C413.956 67.2547 413.138 66.9167 412.286 66.9167C411.433 66.9167 410.616 67.2547 410.013 67.8564C409.41 68.458 409.071 69.2741 409.071 70.125H405.857V28.4167H425.143Z" fill="#407BFF"/>
<path d="M131 61H138.25V75.4L150.333 61H160L147.627 74.872L160 97H151.252L142.503 80.608L138.25 85.36V97H131V61Z" fill="#407BFF"/>
<defs>
<linearGradient id="paint0_linear_1692_742" x1="113" y1="47.5" x2="199" y2="127" gradientUnits="userSpaceOnUse">
<stop stop-color="white"/>
<stop offset="1" stop-color="white" stop-opacity="0"/>
</linearGradient>
<linearGradient id="paint1_linear_1692_742" x1="303" y1="302.5" x2="261" y2="-25.5" gradientUnits="userSpaceOnUse">
<stop stop-color="white"/>
<stop offset="1" stop-color="white" stop-opacity="0"/>
</linearGradient>
<linearGradient id="paint2_linear_1692_742" x1="-25" y1="229" x2="144" y2="280" gradientUnits="userSpaceOnUse">
<stop stop-color="white"/>
<stop offset="1" stop-color="white" stop-opacity="0"/>
</linearGradient>
<linearGradient id="paint3_linear_1692_742" x1="416" y1="0" x2="378" y2="158.5" gradientUnits="userSpaceOnUse">
<stop stop-color="white"/>
<stop offset="1" stop-color="white" stop-opacity="0"/>
</linearGradient>
<linearGradient id="paint4_linear_1692_742" x1="230" y1="492" x2="195" y2="304" gradientUnits="userSpaceOnUse">
<stop stop-color="white"/>
<stop offset="1" stop-color="white" stop-opacity="0"/>
</linearGradient>
<linearGradient id="paint5_linear_1692_742" x1="465" y1="409.5" x2="293.5" y2="220.5" gradientUnits="userSpaceOnUse">
<stop stop-color="white"/>
<stop offset="1" stop-color="white" stop-opacity="0"/>
</linearGradient>
</defs>
</svg>
