<svg width="269" height="252" viewBox="0 0 269 252" fill="none" xmlns="http://www.w3.org/2000/svg">
<g filter="url(#filter0_d_505_148)">
<path fill-rule="evenodd" clip-rule="evenodd" d="M249.632 31.7296C250.31 29.9196 249.393 27.9022 247.583 27.2237C245.773 26.5451 243.756 27.4623 243.077 29.2723L200.48 142.895C200.424 143.046 200.343 143.188 200.24 143.314L174.933 174.485C174.238 175.341 173.717 176.324 173.397 177.379L165.432 203.683C165.382 203.847 165.327 203.929 165.299 203.964C165.29 203.976 165.281 203.986 165.271 203.995C165.252 204.015 165.232 204.029 165.21 204.042C165.136 204.084 164.982 204.131 164.773 204.1C164.563 204.069 164.43 203.98 164.372 203.918C164.346 203.891 164.326 203.861 164.309 203.818C164.292 203.776 164.263 203.681 164.263 203.51C164.263 195.982 154.49 193.038 150.333 199.314L144.002 208.87C143.724 209.29 143.254 209.542 142.751 209.542H128.671C127.843 209.542 127.171 208.87 127.171 208.042V196.976C127.171 191.422 120.784 188.438 116.543 191.759L101.069 154.155C99.7579 150.97 96.6535 148.89 93.2083 148.89H83.0173C79.3654 148.89 76.1216 151.223 74.9593 154.685L74.5037 156.042C74.041 157.42 72.0843 157.4 71.6501 156.013L69.5599 149.332C67.4963 142.737 58.2443 142.514 55.865 149.002C55.8378 149.076 55.8139 149.106 55.8087 149.112C55.8027 149.12 55.7989 149.123 55.7937 149.126C55.7785 149.135 55.723 149.16 55.6323 149.155C55.5416 149.149 55.4892 149.119 55.4752 149.108C55.4703 149.104 55.4669 149.101 55.4618 149.093C55.4594 149.089 55.4525 149.078 55.4438 149.057C55.4362 149.038 55.4272 149.012 55.4185 148.976L53.5827 141.384C51.6469 133.377 40.0132 134.164 39.1728 142.358L38.7488 146.491C35.8014 145.468 32.0887 147.199 31.7329 150.967L28 190.501H35.0311L38.388 154.949C41.318 155.949 44.9908 154.24 45.3737 150.507L46.1363 143.072C46.149 142.948 46.1754 142.893 46.1814 142.881C46.1879 142.868 46.1923 142.864 46.1983 142.858C46.2174 142.841 46.2963 142.789 46.4392 142.779C46.5822 142.77 46.6674 142.811 46.6886 142.825C46.6928 142.828 46.6963 142.831 46.7004 142.835C46.7028 142.838 46.7053 142.841 46.7084 142.845C46.7159 142.856 46.7494 142.907 46.7788 143.029L48.6146 150.621C50.2959 157.575 59.9737 158.129 62.437 151.412C62.4618 151.344 62.4837 151.316 62.4896 151.308C62.4963 151.3 62.5014 151.296 62.5079 151.292C62.5251 151.281 62.5779 151.257 62.662 151.259C62.7461 151.261 62.7976 151.287 62.8143 151.299C62.8206 151.304 62.8255 151.308 62.8317 151.317C62.8373 151.324 62.8578 151.354 62.8793 151.423L64.9695 158.103C67.4299 165.966 78.5175 166.081 81.1397 158.27L81.5953 156.913C81.8004 156.302 82.3729 155.89 83.0173 155.89H93.2083C93.8163 155.89 94.3641 156.257 94.5955 156.819L110.283 194.941C111.917 198.914 116.787 200.223 120.171 197.828V208.042C120.171 212.736 123.977 216.542 128.671 216.542H142.751C145.602 216.542 148.263 215.113 149.837 212.736L156.168 203.18C156.291 202.994 156.394 202.949 156.454 202.929C156.543 202.901 156.68 202.89 156.838 202.938C156.997 202.985 157.105 203.07 157.163 203.143C157.203 203.193 157.263 203.287 157.263 203.51C157.263 212.249 169.598 214.076 172.131 205.711L180.097 179.408C180.153 179.222 180.245 179.049 180.368 178.898L205.675 147.726C206.253 147.013 206.713 146.211 207.035 145.352L249.632 31.7296Z" fill="url(#paint0_linear_505_148)"/>
</g>
<defs>
<filter id="filter0_d_505_148" x="0" y="0" width="283.855" height="251.542" filterUnits="userSpaceOnUse" color-interpolation-filters="sRGB">
<feFlood flood-opacity="0" result="BackgroundImageFix"/>
<feColorMatrix in="SourceAlpha" type="matrix" values="0 0 0 0 0 0 0 0 0 0 0 0 0 0 0 0 0 0 127 0" result="hardAlpha"/>
<feOffset dx="3" dy="4"/>
<feGaussianBlur stdDeviation="15.5"/>
<feComposite in2="hardAlpha" operator="out"/>
<feColorMatrix type="matrix" values="0 0 0 0 0.36684 0 0 0 0 0.36684 0 0 0 0 0.36684 0 0 0 0.25 0"/>
<feBlend mode="normal" in2="BackgroundImageFix" result="effect1_dropShadow_505_148"/>
<feBlend mode="normal" in="SourceGraphic" in2="effect1_dropShadow_505_148" result="shape"/>
</filter>
<linearGradient id="paint0_linear_505_148" x1="183.956" y1="46.4529" x2="68.9566" y2="115.218" gradientUnits="userSpaceOnUse">
<stop offset="0.365548" stop-color="white"/>
<stop offset="1" stop-color="white"/>
</linearGradient>
</defs>
</svg>
