<svg width="36" height="36" fill="none" xmlns="http://www.w3.org/2000/svg"><g filter="url(#a)">
    <path d="m21.804 20.272-2.75-2.505-.064-.092a.67.67 0 0 0-.455-.174.67.67 0 0 0-.454.174c-2.337 1.998-5.938 2.107-8.415.254-2.477-1.853-3.061-5.092-1.365-7.57 1.696-2.478 5.146-3.425 8.061-2.213 2.916 1.212 4.393 4.206 3.452 6.997a.553.553 0 0 0 .145.576c.158.154.394.22.62.173a.627.627 0 0 0 .473-.403c1.126-3.312-.574-6.877-4-8.387-3.424-1.511-7.547-.515-9.7 2.344-2.154 2.859-1.692 6.722 1.087 9.091 2.78 2.37 7.04 2.532 10.028.385l2.435 2.218a.69.69 0 0 0 .91 0 .557.557 0 0 0 0-.835l-.008-.033Z" fill="#40C4F0"/></g><defs><filter id="a" x="0" y=".4" width="36" height="34.911" filterUnits="userSpaceOnUse" color-interpolation-filters="sRGB"><feFlood flood-opacity="0" result="BackgroundImageFix"/><feColorMatrix in="SourceAlpha" values="0 0 0 0 0 0 0 0 0 0 0 0 0 0 0 0 0 0 127 0" result="hardAlpha"/><feOffset dx="4" dy="4"/><feGaussianBlur stdDeviation="5"/><feComposite in2="hardAlpha" operator="out"/><feColorMatrix values="0 0 0 0 0.2 0 0 0 0 0.900392 0 0 0 0 0.945098 0 0 0 0.32 0"/><feBlend in2="BackgroundImageFix" result="effect1_dropShadow_1006_117"/><feBlend in="SourceGraphic" in2="effect1_dropShadow_1006_117" result="shape"/></filter></defs>
</svg>