<svg width="494" height="492" fill="none" xmlns="http://www.w3.org/2000/svg"><circle cx="144" cy="82" r="45" fill="url(#a)"/><circle cx="285.5" cy="198.5" r="125.5" fill="url(#b)"/><circle cx="72" cy="252" r="72" fill="url(#c)"/><circle cx="416" cy="60" r="60" fill="url(#d)"/><circle cx="220.5" cy="408.5" r="83.5" fill="url(#e)"/><circle cx="434" cy="366" r="60" fill="url(#f)"/><path d="M305.253 173.481a127.7028 127.7028 0 0 0-14.921-12.749 74.7111 74.7111 0 0 1 11.362-5.594c1.045-.39 2.024-.683 3.004-.976a7.4402 7.4402 0 0 0 2.977 2.162 7.4643 7.4643 0 0 0 7.087-.852 7.4196 7.4196 0 0 0 2.375-2.806c2.332.21 4.531 1.169 6.269 2.732 3.885 3.87 3.983 11.676.326 21.4 1.6 2.114 3.069 4.261 4.408 6.505.555-1.301 1.143-2.57 1.6-3.838 4.799-12.521 4.179-22.766-1.731-28.555-2.956-2.789-6.807-4.448-10.872-4.683a7.4578 7.4578 0 0 0-3.16-3.317 7.5062 7.5062 0 0 0-4.511-.852 7.4847 7.4847 0 0 0-4.159 1.934 7.4407 7.4407 0 0 0-2.242 3.991c-1.208.358-2.416.715-3.689 1.203a84.3656 84.3656 0 0 0-14.921 7.643 85.6894 85.6894 0 0 0-14.953-7.773c-12.57-4.748-22.855-4.163-28.634 1.724-5.419 5.431-6.301 14.44-2.709 25.563-.82 1.05-1.341 2.3-1.509 3.62a7.3868 7.3868 0 0 0 .554 3.88 7.4228 7.4228 0 0 0 2.463 3.056 7.461 7.461 0 0 0 3.683 1.38c1.045 1.984 2.187 3.967 3.461 5.919a82.9847 82.9847 0 0 0-7.608 14.895c-4.799 12.489-4.179 22.766 1.731 28.523a18.4028 18.4028 0 0 0 6.225 3.815c2.311.843 4.768 1.216 7.226 1.096a43.6917 43.6917 0 0 0 15.182-3.252 85.7594 85.7594 0 0 0 14.954-7.643 84.356 84.356 0 0 0 14.855 7.838 46.3888 46.3888 0 0 0 11.917 2.927c.717 1.519 1.926 2.753 3.433 3.505 1.507.752 3.223.977 4.874.639a7.5151 7.5151 0 0 0 4.226-2.502 7.4583 7.4583 0 0 0 1.767-4.569c.867-.534 1.677-1.155 2.416-1.854 5.91-5.887 6.53-16.034 1.731-28.523-5.631-13.414-13.965-25.535-24.487-35.612Zm-38.069 59.777c-9.795 3.74-17.794 3.675-21.712-.26-3.918-3.936-4.016-11.774-.229-21.596a74.039 74.039 0 0 1 5.583-11.317 130.9721 130.9721 0 0 0 12.799 14.83c1.404 1.398 2.84 2.764 4.277 4.065 1.959-.997 3.951-2.135 5.975-3.415-1.894-1.691-3.787-3.252-5.616-5.236a110.6299 110.6299 0 0 1-18.741-24.294 7.4416 7.4416 0 0 0 1.974-3.826 7.4315 7.4315 0 0 0-.48-4.275 7.4594 7.4594 0 0 0-2.773-3.298 7.4978 7.4978 0 0 0-4.14-1.22c-2.449-8.131-2.025-14.603 1.404-18.018 1.207-1.06 2.614-1.87 4.138-2.384 1.525-.514 3.137-.72 4.742-.608 4.406.146 8.75 1.072 12.831 2.732 3.94 1.54 7.741 3.412 11.362 5.594a127.693 127.693 0 0 0-14.92 12.749c-1.437 1.431-2.841 2.927-4.212 4.423a65.926 65.926 0 0 0 3.265 6.017c1.763-1.984 3.559-3.936 5.485-5.854a118.4106 118.4106 0 0 1 16.325-13.563 120.4063 120.4063 0 0 1 16.161 13.563 118.0682 118.0682 0 0 1 13.615 16.261c-4.05 5.808-8.606 11.25-13.615 16.261-9.5 9.75-20.899 17.463-33.498 22.669Zm56.222-.293-.523.423a7.413 7.413 0 0 0-2.957-1.521 7.436 7.436 0 0 0-3.328-.079 7.4311 7.4311 0 0 0-3.027 1.381 7.384 7.384 0 0 0-2.115 2.561 41.1959 41.1959 0 0 1-9.795-2.505 71.8953 71.8953 0 0 1-11.362-5.594 127.5248 127.5248 0 0 0 14.921-12.749c4.65-4.601 8.93-9.56 12.799-14.83a74.263 74.263 0 0 1 5.615 11.318c3.722 9.854 3.722 17.725-.228 21.595ZM338.516 151.104c2.325-.378 3.904-2.569 3.527-4.894-.378-2.325-2.569-3.904-4.894-3.527-2.325.378-3.904 2.569-3.527 4.894.378 2.325 2.569 3.904 4.894 3.527ZM73.634 250.2C73.064 249.592 64.4 235 53 235s-17.784 12.084-19 15.2v7.6h36.366c.57.608 9.234 15.2 20.634 15.2s17.784-12.084 19-15.2v-7.6H73.634ZM53 242.6c4.446 0 8.284 3.23 11.4 7.6H42.778c1.786-3.154 4.674-7.6 10.222-7.6Zm38 22.8c-4.446 0-8.284-3.23-11.4-7.6h21.622c-1.786 3.154-4.674 7.6-10.222 7.6ZM464.858 364.333c-3.741-.67-5.611-2.351-5.646-2.38-1.469-1.428-3.877-1.416-5.386-.046-.12.11-3.012 2.695-8.832 2.695s-8.711-2.584-8.789-2.65c-1.46-1.439-3.868-1.415-5.377-.045-.12.11-3.012 2.695-8.832 2.695s-8.704-2.577-8.788-2.648c-1.461-1.441-3.863-1.429-5.374-.035-.077.059-1.947 1.746-5.689 2.414-2.082.373-3.461 2.325-3.081 4.361.382 2.037 2.369 3.409 4.462 3.014 3.034-.544 5.357-1.563 6.97-2.489 2.336 1.351 6.165 2.892 11.504 2.892 5.336 0 9.162-1.537 11.499-2.888 2.338 1.351 6.163 2.881 11.499 2.881 5.34 0 9.169-1.534 11.505-2.885 1.613.93 3.936 1.947 6.97 2.49 2.103.395 4.08-.978 4.462-3.014.384-2.03-.993-3.987-3.077-4.362Zm0 16.896c-3.741-.67-5.611-2.35-5.646-2.38-1.463-1.428-3.87-1.42-5.379-.044-.127.104-3.014 2.694-8.835 2.694-5.822 0-8.712-2.585-8.79-2.651-1.463-1.435-3.869-1.42-5.377-.044-.123.105-3.01 2.695-8.831 2.695-5.822 0-8.712-2.585-8.79-2.651-1.463-1.435-3.866-1.425-5.377-.04-.078.07-1.949 1.75-5.689 2.421-2.082.373-3.461 2.324-3.081 4.361.384 2.037 2.372 3.408 4.464 3.009 3.033-.539 5.356-1.558 6.969-2.484 2.336 1.351 6.17 2.885 11.509 2.885 5.336 0 9.157-1.53 11.494-2.881 2.336 1.344 6.169 2.879 11.511 2.879 5.34 0 9.163-1.534 11.391-2.885 1.614.93 3.936 1.947 6.97 2.49 2.205.395 4.182-.976 4.565-3.015s-.994-3.984-3.078-4.359Zm-61.331-26.399c3.034-.542 5.357-1.559 6.97-2.49 2.336 1.351 6.165 2.892 11.504 2.892 5.336 0 9.162-1.537 11.499-2.888 2.338 1.351 6.163 2.881 11.499 2.881 5.34 0 9.169-1.534 11.505-2.885 1.614.931 3.936 1.948 6.97 2.49 2.103.396 4.08-.977 4.462-3.013.38-2.037-.999-3.988-3.081-4.361-3.741-.671-5.61-2.351-5.645-2.38-1.464-1.429-3.87-1.42-5.379-.044-.12.11-3.012 2.695-8.832 2.695s-8.712-2.585-8.79-2.651c-1.463-1.435-3.868-1.42-5.376-.044-.12.11-3.012 2.695-8.832 2.695s-8.709-2.58-8.793-2.645c-1.461-1.436-3.863-1.425-5.374-.041-.077.07-1.947 1.75-5.689 2.42-2.082.374-3.461 2.325-3.081 4.362.383 2.035 2.371 3.406 4.463 3.007ZM219.48 426.819l12.028-11.973-12.028-11.973 5.993-5.965 12.027 11.973 12.027-11.973 5.993 5.965-12.028 11.973 12.028 11.973-5.993 5.966-12.027-11.973-12.027 11.973-5.993-5.966ZM178 402.154h12.75L200.482 425 212 381h51v8.462h-44.412L206.39 436h-10.455l-10.795-25.385H178v-8.461ZM419 61c1.657 0 3-1.567 3-3.5s-1.343-3.5-3-3.5-3 1.567-3 3.5 1.343 3.5 3 3.5ZM413.5 48c.828 0 1.5-.8954 1.5-2s-.672-2-1.5-2-1.5.8954-1.5 2 .672 2 1.5 2ZM417.5 41c.828 0 1.5-.6716 1.5-1.5s-.672-1.5-1.5-1.5-1.5.6716-1.5 1.5.672 1.5 1.5 1.5Z" fill="#407BFF"/><path d="M393 22v6.4167h6.429v54.5416c0 4.2545 1.693 8.3348 4.707 11.3432S411.238 99 415.5 99c4.262 0 8.35-1.6901 11.364-4.6985 3.014-3.0084 4.707-7.0887 4.707-11.3432V28.4167H438V22h-45Zm32.143 6.4167V70.125H415.5a3.208 3.208 0 0 0-.941-2.2686 3.2188 3.2188 0 0 0-4.546 0 3.2048 3.2048 0 0 0-.942 2.2686h-3.214V28.4167h19.286ZM131 61h7.25v14.4L150.333 61H160l-12.373 13.872L160 97h-8.748l-8.749-16.392-4.253 4.752V97H131V61Z" fill="#407BFF"/><defs><linearGradient id="a" x1="113" y1="47.5" x2="199" y2="127" gradientUnits="userSpaceOnUse"><stop stop-color="#fff"/><stop offset="1" stop-color="#fff" stop-opacity="0"/></linearGradient><linearGradient id="b" x1="303" y1="302.5" x2="261" y2="-25.5" gradientUnits="userSpaceOnUse"><stop stop-color="#fff"/><stop offset="1" stop-color="#fff" stop-opacity="0"/></linearGradient><linearGradient id="c" x1="-25" y1="229" x2="144" y2="280" gradientUnits="userSpaceOnUse"><stop stop-color="#fff"/><stop offset="1" stop-color="#fff" stop-opacity="0"/></linearGradient><linearGradient id="d" x1="416" y1="0" x2="378" y2="158.5" gradientUnits="userSpaceOnUse"><stop stop-color="#fff"/><stop offset="1" stop-color="#fff" stop-opacity="0"/></linearGradient><linearGradient id="e" x1="230" y1="492" x2="195" y2="304" gradientUnits="userSpaceOnUse"><stop stop-color="#fff"/><stop offset="1" stop-color="#fff" stop-opacity="0"/></linearGradient><linearGradient id="f" x1="465" y1="409.5" x2="293.5" y2="220.5" gradientUnits="userSpaceOnUse"><stop stop-color="#fff"/><stop offset="1" stop-color="#fff" stop-opacity="0"/></linearGradient></defs></svg>